<svg xmlns="http://www.w3.org/2000/svg" viewBox="0 0 899.34 168.75"><g id="Capa_2" data-name="Capa 2"><g id="Capa_1-2" data-name="Capa 1"><path d="M403.1,168.4V148.92h11.48v1.6h-9.72v7.33h8.87v1.59h-8.87v7.36h9.72v1.6Z"/><path d="M442.68,153.89a4.51,4.51,0,0,0-4.75-3.79c-2.33,0-4.45,1.57-4.45,3.85,0,1.76,1.1,3,3.08,3.43l3,.69c3,.71,4.88,2.47,4.88,5.22,0,3-2.52,5.46-6.45,5.46-4.28,0-6.65-2.82-7-5.79l1.62-.52a5.15,5.15,0,0,0,5.36,4.75c3,0,4.72-1.65,4.72-3.76,0-1.82-1.26-3.14-3.48-3.66l-2.94-.68c-2.61-.61-4.51-2.26-4.51-5,0-3,2.91-5.49,6.13-5.49,4,0,5.79,2.3,6.34,4.78Z"/><path d="M461,158.67c0-6.51,4.75-10.1,9.53-10.1,4.37,0,7.47,2.5,8.38,6.2l-1.57.55a6.58,6.58,0,0,0-6.81-5.16c-4,0-7.77,2.94-7.77,8.51s3.79,8.49,7.77,8.49a6.86,6.86,0,0,0,6.95-5.25l1.51.55a8.33,8.33,0,0,1-8.46,6.29C465.7,168.75,461,165.18,461,158.67Z"/><path d="M496.36,161.91v-13h1.76v12.91c0,3.44,1.73,5.33,4.92,5.33s4.91-1.89,4.91-5.33V148.92h1.76v13c0,4.43-2.69,6.84-6.67,6.84S496.36,166.36,496.36,161.91Z"/><path d="M528.78,168.4V148.92h11.48v1.6h-9.72v7.33h8.87v1.59h-8.87v7.36h9.72v1.6Z"/><path d="M558.31,168.4V148.92h1.76V166.8h9.83v1.6Z"/><path d="M598.39,162.38h-9.31l-2.39,6h-1.87l7.88-19.48h2.09l7.88,19.48h-1.86Zm-8.68-1.59h8l-4-10.14Z"/><path d="M639.84,168.4V148.92h6.07c5,0,9.26,3.38,9.26,9.78s-4.37,9.7-9.31,9.7Zm6-1.54c4,0,7.59-2.72,7.59-8.16s-3.49-8.24-7.53-8.24h-4.29v16.4Z"/><path d="M673.14,168.4V148.92h11.48v1.6H674.9v7.33h8.87v1.59H674.9v7.36h9.72v1.6Z"/><path d="M722.17,158.67c0-6.51,4.76-10.1,9.54-10.1,4.36,0,7.47,2.5,8.37,6.2l-1.56.55a6.59,6.59,0,0,0-6.81-5.16c-4,0-7.78,2.94-7.78,8.51s3.79,8.49,7.78,8.49a6.86,6.86,0,0,0,6.95-5.25l1.51.55a8.34,8.34,0,0,1-8.46,6.29C726.87,168.75,722.17,165.18,722.17,158.67Z"/><path d="M765.91,148.57c4.77,0,9.53,3.59,9.53,10.1s-4.76,10.08-9.53,10.08-9.51-3.57-9.51-10.08S761.13,148.57,765.91,148.57Zm0,18.59c4,0,7.77-2.94,7.77-8.49s-3.79-8.51-7.77-8.51-7.75,2.94-7.75,8.51S761.92,167.16,765.91,167.16Z"/><path d="M792,158.67c0-6.51,4.76-10.1,9.53-10.1,4.37,0,7.47,2.5,8.38,6.2l-1.56.55a6.6,6.6,0,0,0-6.82-5.16c-4,0-7.77,2.94-7.77,8.51s3.79,8.49,7.77,8.49a6.85,6.85,0,0,0,7-5.25l1.51.55a8.33,8.33,0,0,1-8.46,6.29C796.73,168.75,792,165.18,792,158.67Z"/><path d="M827.61,168.4V148.92h1.75V168.4Z"/><path d="M862.19,168.4l-11.78-17.31V168.4h-1.76V148.92h2.42l11.23,16.62V148.92h1.76V168.4Z"/><path d="M894.75,162.38h-9.32l-2.39,6h-1.87l7.89-19.48h2.09L899,168.4h-1.87Zm-8.69-1.59h8.05l-4-10.14Z"/><path d="M17.28,116.77Q-.39,96.35,0,66.52c.78-18.33,6.8-33.77,18.32-46.07C29.85,7.89,44,1.35,61,.82,79.57.3,95.54,5.53,109.15,16.53c11,8.89,6.54,17.53.52,21.2-2.35,1.3-3.92.78-4.45-1.57C99.73,13.91,85.33,2.92,62,2.92c-13.35,0-24.34,6.28-33,18.58S16.24,50.29,16.24,70.7q0,35.34,22,53.39c14.92,11.78,32.72,13.35,53.92,4.19,6.54-2.88,13.61-9.68,20.93-20.94l1.31-2.09c1.31-2.36,2.36-3.14,3.4-2.88,1.84.79,1.58,2.62-.52,5.5-13.35,20.41-31.41,30.36-54.18,29.57C44.5,137.18,29.32,130.11,17.28,116.77Z"/><path d="M191.33,137.64c-18.58,0-34.28-6.54-46.85-19.63-12.3-13.08-18.58-29.31-18.58-48.94s6.28-35.85,18.58-48.68C157.05,7.57,172.75,1,191.33,1s34.29,6.55,46.59,19.37q18.84,19.24,18.84,48.68c0,19.63-6.28,35.86-18.84,48.94C225.62,131.1,209.91,137.64,191.33,137.64Zm54.18-41.87c3.93-15.18,1.83-31.15-5.76-47.64-8.37-17.27-19.89-29.57-34.55-36.64s-28.79-7.59-42.66-1.05c-13.35,6-21.72,16.76-25.65,32.2-3.66,15.18-1.57,31.14,6,47.89,8.12,17.54,19.37,29.84,34,36.91s29.05,7.06,43.18.26C233.47,121.68,241.85,111,245.51,95.77Z"/><path d="M540.08,132.44l.26.79-.52.78c-18.58,7.07-28.79.53-30.1-19.1-11.51,11.51-27.74,19.89-42.14,20.94-18.58,1.3-32.19-2.62-41.09-11.52-8.63-8.9-13.08-19.37-13.08-31.15V33c0-6-5.24-8.9-9.16-8.9-1.31,0-1.84-1.31.26-1.57,6-.79,13.87-6.54,23.29-17.28V90c0,8.64,1.57,17.28,6.55,27.75,5.23,10.2,16.75,17,33.23,16,8.38-.52,17.54-5,27.22-13.35s14.66-16.49,14.66-24.08V33c0-6-5.23-8.9-9.16-8.9-1.31,0-1.83-1.31.26-1.57,6-.79,13.87-6.54,23.3-17.28V97.37c0,27.22,2.87,34.81,15.44,34.81Z"/><path d="M564,78c2.61,20.67,11.51,35.85,27,46.06,15.44,10,30.89,11.52,46.07,4.71a43,43,0,0,0,22.77-21.2c2.09-4.45,3.14-5.23,4.45-5,1.83.78,1.57,2.62-.27,5.5-13.08,20.67-31.4,30.36-55.22,29.57-18.06-.78-33-7.33-44.49-20.15-11.26-12.83-17-29.32-17-49.47s6-36.38,18-48.68C577.6,7,593,1,611.62,1,624.44,1,636.74,5.45,648,14.35c11.52,8.64,18.32,21.46,20.41,38.21,0,2.09-1.57,2.62-3.4,2.62H563.2A111.81,111.81,0,0,0,564,78Zm-.79-24.34h92.13c-2.88-32.46-20.16-50.25-46.07-50.25C582.31,3.36,566.08,23.51,563.2,53.61Z"/><path d="M787.48,30.69q-9.3,15.63-9.32,37.31c0,20.15,5.76,36.64,17,49.47,11.52,12.82,26.43,19.37,44.49,20.15,23.82.79,42.14-8.9,55.23-29.57,1.83-2.88,2.09-4.72.26-5.5-1.31-.26-2.36.52-4.45,5a42.9,42.9,0,0,1-22.77,21.2c-15.18,6.81-30.62,5.24-46.06-4.71-15.45-10.21-24.34-25.39-27-46.06a111.81,111.81,0,0,1-.79-22.77V53.61A84.9,84.9,0,0,1,796,42.22c11.7,17.34,29.47,22.41,46.23,22.41,20.82,0,40-7.8,44-9.53v.08h9.68c1.84,0,3.41-.53,3.41-2.62-2.1-16.75-8.9-29.57-20.42-38.21C867.67,5.45,855.37,1,842.54,1c-18.58,0-34,6-46.32,18.32a60.47,60.47,0,0,0-7.86,9.91C783.79,21.83,775.76,6,763.2,1.79c-5.93-2-17.75-3.14-30.05,1a59.07,59.07,0,0,0-29.58,21.73V.74C694.15,11.47,686.3,17.23,680.28,18c-2.1.26-1.57,1.57-.26,1.57,3.92,0,9.16,2.88,9.16,8.9v92.91c0,6.55-5,11.26-13.09,11.26a.79.79,0,1,0,0,1.57h40.57a.79.79,0,0,0,0-1.57c-8.12,0-13.09-4.71-13.09-11.26V36.07c0-24.34,40.86-28,47.06-27.3,12.57,1.39,18.15,1.39,29.31,12.56m16.83,19.61-.36-.53c5.86-22.65,21-37,43.78-37,25.9,0,43.17,17.78,46.06,50.22C882.63,55.2,823.15,81,796.77,40.94Z"/><path d="M306.7,133.61c-17.48-6.3-30-17.78-37.42-34.35-7.13-16.48-7.54-33.87-.89-52.34s18.07-31.6,34-39.5C318.55-.38,335.54-1.21,353,5.09s30,17.78,37.26,34q11.21,24.49,1.23,52.19c-6.66,18.47-18.07,31.6-34.33,39.65C341.17,139.08,324.18,139.91,306.7,133.61Zm65.17-21c8.84-13,12.28-28.68,10.73-46.77-2-19.09-8.69-34.56-20.08-46.18S338,2.74,322.74,4.19c-14.6,1.14-26.11,8.39-35,21.59-8.6,13-12,28.77-10.58,47.1,1.69,19.25,8.11,34.63,19.5,46.25s24.93,16.5,40.54,14.89C351.76,132.88,363.27,125.63,371.87,112.59Z"/><path d="M285.9,117.76l49.89-2.85s17.06-2.17,24.61,4c4.24,3.45,6.52,8.79,6.78,15.86l1.31,21.16,27.72,1.82v-1c0-.3-1.53-27.59-23-39.06a59.43,59.43,0,0,0-31.29-7.09l-60.21,3Z"/></g></g></svg>