<svg xmlns="http://www.w3.org/2000/svg" viewBox="0 0 303.54 303.54"><g id="Capa_2" data-name="Capa 2"><g id="Capa_1-2" data-name="Capa 1"><path d="M289.78,150.85a.92.92,0,0,0-.92.92A136.91,136.91,0,0,1,55,248.58a137,137,0,0,1,96.81-233.9c37.7,0,76.42,16.86,99.92,45.21,46.29,55.83,12.21,95-1.6,98.62-2.51.66-4.92,1.19-7.28,1.66a64.09,64.09,0,0,0-4.66-25.82c-6.44-16.7-18.5-28.89-35.77-36.11-14.53-6.08-29-7-43.11-3-1.23-3.16-2.44-6.3-3.65-9.36C141,49,118,45.73,98.6,45.73c-16.62,0-31.19,6.7-43.3,19.91-11.51,12.3-17.75,28-18.56,46.65-.26,20,5.62,37.12,17.5,50.84,12.32,13.65,27.94,20.71,46.42,21,.84,0,1.67,0,2.49,0a64,64,0,0,0,8.51-.56c.5,1.73,1.06,3.46,1.7,5.18C120,205.8,132,218,149.27,225.21s34.41,7.25,50.93-.13a69.39,69.39,0,0,0,8.62-4.47,26.46,26.46,0,0,1,1.25,8.81l.25,21.36L238.11,254l0-1c0-.3-.14-26.6-19.76-39.58a72.72,72.72,0,0,0,18.35-26.55,77,77,0,0,0,5.77-22.17A87,87,0,0,0,255,159.16c35.66-19.25,24.59-75.65-2.39-102.92C226,29.34,190,12.84,151.77,12.84a138.75,138.75,0,0,0-98.11,237,138.16,138.16,0,0,0,94.76,40.78c1.13,0,2.26,0,3.38,0A138.92,138.92,0,0,0,290.7,151.77.92.92,0,0,0,289.78,150.85ZM110.43,178.74a43.85,43.85,0,0,1-34.06-9.52c-9.79-8-26.21-25.66-26.21-53.31,0-19.12,6.24-36.63,17.13-48C79.52,55.05,91.78,51.06,98,49.81c13.14-2.63,28.89,2.91,35.49,9.34,12,11.68,18.39,25.18,22.94,37-1.71.57-3.42,1.2-5.12,1.91-16.42,7.14-28.56,19.78-36.19,38C109,150.72,107.48,164.92,110.43,178.74Zm69.47,48.42c-15.79.83-29.16-4.76-40-17-.57-.65-1.13-1.31-1.67-2l41.3-.29s17.27-1.31,24.56,5.26a16.75,16.75,0,0,1,3.06,3.75A42.73,42.73,0,0,1,179.9,227.16Zm36-19.81c-.82,1.13-1.68,2.19-2.55,3.22a59.31,59.31,0,0,0-27.46-6.7H135a68.62,68.62,0,0,1-10.13-23.58c12.07-4.61,22.36-13.32,30.72-26.12,1.59-2.18,2.17-3.78,1.82-5a2.67,2.67,0,0,0-1.65-1.75l-.13-.05c-2-.5-3.37,1.51-4.34,3.26l-1.3,2.08c-7,10.77-13.93,17.71-20.56,20.62-1.88.81-3.71,1.51-5.53,2.15a99.83,99.83,0,0,1-1.3-12.83c-.54-18.51,3.72-34.17,13-46.85,6.24-8.3,13.46-14,21.76-17.15l.15.39c10.34,27.86,30.6,73.62,71.54,68.93C228.5,183.19,224.2,196.43,215.9,207.35ZM160.2,97.65A45,45,0,0,1,172,95.8c15.44-.69,28.37,5.29,39.25,17.56s16.79,28.17,17.86,47.48c0,.35,0,.68,0,1C187.23,163.6,172.61,129.62,160.2,97.65Z"/><path d="M151.77,0C68.08,0,0,68.08,0,151.77S68.08,303.54,151.77,303.54s151.77-68.08,151.77-151.77S235.46,0,151.77,0Zm0,301.12c-82.35,0-149.34-67-149.34-149.35S69.42,2.43,151.77,2.43s149.35,67,149.35,149.34S234.12,301.12,151.77,301.12Z"/></g></g></svg>