<svg version="1.2" xmlns="http://www.w3.org/2000/svg" viewBox="0 0 448 392" width="448" height="392">
	<title>menuIcon-svg</title>
	<style>
		.s0 { fill: #ffffff } 
	</style>
	<path id="Layer" class="s0" d="m9.9 70.8c-2-0.8-3.7-2-5.2-3.5-1.5-1.5-2.7-3.2-3.5-5.2-0.8-1.9-1.2-4-1.2-6.1v-40c0-2.1 0.4-4.2 1.2-6.1 0.8-2 2-3.7 3.5-5.2 1.5-1.5 3.2-2.7 5.2-3.5 1.9-0.8 4-1.2 6.1-1.2h416c2.1 0 4.2 0.4 6.1 1.2 2 0.8 3.7 2 5.2 3.5 1.5 1.5 2.7 3.2 3.5 5.2 0.8 1.9 1.2 4 1.2 6.1v40c0 2.1-0.4 4.2-1.2 6.1-0.8 2-2 3.7-3.5 5.2-1.5 1.5-3.2 2.7-5.2 3.5-1.9 0.8-4 1.2-6.1 1.2h-416c-2.1 0-4.2-0.4-6.1-1.2zm0 160c-2-0.8-3.7-2-5.2-3.5-1.5-1.5-2.7-3.2-3.5-5.2-0.8-1.9-1.2-4-1.2-6.1v-40c0-2.1 0.4-4.2 1.2-6.1 0.8-2 2-3.7 3.5-5.2 1.5-1.5 3.2-2.7 5.2-3.5 1.9-0.8 4-1.2 6.1-1.2h416c2.1 0 4.2 0.4 6.1 1.2 2 0.8 3.7 2 5.2 3.5 1.5 1.5 2.7 3.2 3.5 5.2 0.8 1.9 1.2 4 1.2 6.1v40c0 2.1-0.4 4.2-1.2 6.1-0.8 2-2 3.7-3.5 5.2-1.5 1.5-3.2 2.7-5.2 3.5-1.9 0.8-4 1.2-6.1 1.2h-416c-2.1 0-4.2-0.4-6.1-1.2zm0 160c-2-0.8-3.7-2-5.2-3.5-1.5-1.5-2.7-3.2-3.5-5.2-0.8-1.9-1.2-4-1.2-6.1v-40c0-2.1 0.4-4.2 1.2-6.1 0.8-2 2-3.7 3.5-5.2 1.5-1.5 3.2-2.7 5.2-3.5 1.9-0.8 4-1.2 6.1-1.2h416c2.1 0 4.2 0.4 6.1 1.2 2 0.8 3.7 2 5.2 3.5 1.5 1.5 2.7 3.2 3.5 5.2 0.8 1.9 1.2 4 1.2 6.1v40c0 2.1-0.4 4.2-1.2 6.1-0.8 2-2 3.7-3.5 5.2-1.5 1.5-3.2 2.7-5.2 3.5-1.9 0.8-4 1.2-6.1 1.2h-416c-2.1 0-4.2-0.4-6.1-1.2z"/>
</svg>