<svg version="1.2" xmlns="http://www.w3.org/2000/svg" viewBox="0 0 512 512" width="512" height="512">
	<title>plus-circle-solid-svg</title>
	<style>
		.s0 { fill: #ffffff } 
	</style>
	<path id="Layer" fill-rule="evenodd" class="s0" d="m504 256c0 137-111 248-248 248-137 0-248-111-248-248 0-137 111-248 248-248 137 0 248 111 248 248zm-104-28c0-6.6-5.4-12-12-12h-92v-92c0-6.6-5.4-12-12-12h-56c-6.6 0-12 5.4-12 12v92h-92c-6.6 0-12 5.4-12 12v56c0 6.6 5.4 12 12 12h92v92c0 6.6 5.4 12 12 12h56c6.6 0 12-5.4 12-12v-92h92c6.6 0 12-5.4 12-12z"/>
</svg>