<svg xmlns="http://www.w3.org/2000/svg" viewBox="0 0 527.08 527.09"><defs><style>.cls-1{fill:#52d131;}.cls-1,.cls-2{fill-rule:evenodd;}.cls-2{fill:#fff;}</style></defs><g id="Capa_2" data-name="Capa 2"><g id="Layer_1" data-name="Layer 1"><path class="cls-1" d="M200.44,7.65h0C59.69,42.36-27.06,185.91,7.65,326.65h0c34.71,140.75,178.26,227.5,319,192.79h0c140.75-34.71,227.5-178.26,192.79-319h0C484.72,59.69,341.18-27.06,200.44,7.65Z"/><path class="cls-2" d="M195.5,250c-7.36-14.66-9.92-31.13-1.44-46,3.29-5.75,8.32-12.13,14.95-14,6.85-1.93,15.45-.56,18.15,6,2.16,5.24,11.88,27,12.24,30.56a6,6,0,0,1-.67,3.47c-3,5.93-10.57,12.84-11.65,15.69a5,5,0,0,0,.67,4.48c11.08,19.21,32.74,39.78,52.49,49.86a5,5,0,0,0,4.5.44c2.8-1.22,9.31-9.15,15.08-12.44a6.21,6.21,0,0,1,3.43-.85c3.6.19,25.81,8.78,31.15,10.66,6.72,2.36,8.53,10.88,7,17.82-1.54,6.72-7.65,12.07-13.23,15.65-14.37,9.22-30.95,7.52-46,.92C250.25,318.34,211.42,281.76,195.5,250Z"/><path class="cls-2" d="M266.51,394.21h0a134.14,134.14,0,0,1-74.22-22.32l-51.84,16.6L157.3,338.4a134.2,134.2,0,0,1-25.69-79.1c0-74.38,60.52-134.9,134.9-134.9s134.91,60.52,134.91,134.9S340.9,394.21,266.51,394.21Zm0-295.37A160.49,160.49,0,0,0,129.07,342.15l-29,86.09L189,399.8a160.47,160.47,0,1,0,77.56-301Z"/></g></g></svg>